<svg xmlns="http://www.w3.org/2000/svg" viewBox="0 0 100 150" fill="none">
  <!-- Jockey Figure - Purple Silk -->
  <!-- Helmet -->
  <ellipse cx="50" cy="18" rx="18" ry="14" fill="#7C3AED"/>
  <ellipse cx="50" cy="16" rx="16" ry="10" fill="#8B5CF6"/>
  <path d="M32 18 Q50 8 68 18" stroke="#6D28D9" stroke-width="2" fill="none"/>
  <!-- Goggles -->
  <ellipse cx="50" cy="22" rx="12" ry="4" fill="#1F2937" opacity="0.8"/>
  <!-- Face -->
  <ellipse cx="50" cy="30" rx="8" ry="6" fill="#FBBF68"/>
  <!-- Neck -->
  <rect x="46" y="34" width="8" height="6" fill="#FBBF68"/>
  <!-- Body/Silk -->
  <path d="M35 40 L65 40 L70 90 L30 90 Z" fill="#8B5CF6"/>
  <path d="M35 40 L65 40 L70 90 L30 90 Z" fill="url(#silk6-gradient)"/>
  <!-- Sleeves -->
  <path d="M35 40 L20 55 L25 65 L38 55 Z" fill="#8B5CF6"/>
  <path d="M65 40 L80 55 L75 65 L62 55 Z" fill="#8B5CF6"/>
  <!-- Hands -->
  <ellipse cx="22" cy="67" rx="5" ry="4" fill="#FBBF68"/>
  <ellipse cx="78" cy="67" rx="5" ry="4" fill="#FBBF68"/>
  <!-- Belt -->
  <rect x="30" y="85" width="40" height="5" fill="#FFFFFF"/>
  <!-- Pants -->
  <path d="M30 90 L35 130 L45 130 L50 95 L55 130 L65 130 L70 90 Z" fill="#FFFFFF"/>
  <!-- Boots -->
  <path d="M35 128 L35 145 L48 145 L48 130 Z" fill="#1F2937"/>
  <path d="M52 130 L52 145 L65 145 L65 128 Z" fill="#1F2937"/>
  <!-- Gradient definition -->
  <defs>
    <linearGradient id="silk6-gradient" x1="0%" y1="0%" x2="100%" y2="100%">
      <stop offset="0%" style="stop-color:#A78BFA;stop-opacity:0.3"/>
      <stop offset="100%" style="stop-color:#8B5CF6;stop-opacity:0"/>
    </linearGradient>
  </defs>
</svg>